<svg id="Layer_1" data-name="Layer 1" xmlns="http://www.w3.org/2000/svg" viewBox="0 0 476.19 91.84"><defs><style>.cls-1{fill:#fff;}.cls-2{fill:#f1ab00;}</style></defs><title>ucr_logo_gold-white</title><path class="cls-1" d="M160,.76V10.93c0,1.68,1.19,3.07,3.44,3.07s3.45-1.39,3.45-3.07V.76h1.6V10.81c0,2.87-2.07,4.55-5.05,4.55s-5-1.68-5-4.55V.76Z" transform="translate(-1.04 -0.56)"/><path class="cls-1" d="M175.31,15.16V.76h2.29l6.28,11.09H184V.76h1.44v14.4h-1.32l-7.3-12.84h0V15.16Z" transform="translate(-1.04 -0.56)"/><path class="cls-1" d="M194.17.76v14.4h-1.59V.76Z" transform="translate(-1.04 -0.56)"/><path class="cls-1" d="M199.58.76h1.59l3.55,11.81h0L208.33.76h1.61l-4.46,14.4H204Z" transform="translate(-1.04 -0.56)"/><path class="cls-1" d="M223.6.76V2.12h-7V6.94h5V8.3h-5v5.5H224v1.36h-9V.76Z" transform="translate(-1.04 -0.56)"/><path class="cls-1" d="M229.51,15.16V.76h4.62c3.11,0,4.81,1.4,4.81,3.79a3.74,3.74,0,0,1-2.87,3.75l3.05,6.86h-1.74l-2.91-6.54H231.1v6.54Zm1.59-7.9H234c2.19,0,3.35-.82,3.35-2.63S236,2.12,234,2.12H231.1Z" transform="translate(-1.04 -0.56)"/><path class="cls-1" d="M252.26,4.43a3.27,3.27,0,0,0-3.35-2.51c-1.68,0-2.68.8-2.69,2.23,0,3.15,8.09,2.35,8.09,7,0,2.09-1.18,4.23-4.84,4.23-3.16,0-4.39-2-5.15-3.75l1.46-.52A3.91,3.91,0,0,0,249.55,14c2.11,0,3.17-1.11,3.17-2.59,0-3.67-8.1-2.59-8.1-7.14,0-2.07,1.73-3.71,4.33-3.71a4.73,4.73,0,0,1,4.74,3.55Z" transform="translate(-1.04 -0.56)"/><path class="cls-1" d="M262.13.76v14.4h-1.6V.76Z" transform="translate(-1.04 -0.56)"/><path class="cls-1" d="M273.51,2.12v13h-1.59v-13h-4.31V.76h10.21V2.12Z" transform="translate(-1.04 -0.56)"/><path class="cls-1" d="M285.52,9.1,281.09.76h1.76l3.46,6.6,3.47-6.6h1.76L287.11,9.1v6.06h-1.59Z" transform="translate(-1.04 -0.56)"/><path class="cls-1" d="M309.6.56c3.53,0,5.63,2.59,5.63,7.4s-2.1,7.4-5.63,7.4S304,12.77,304,8,306.07.56,309.6.56Zm0,13.44c2.54,0,4-1.95,4-6s-1.49-6-4-6-4,2-4,6S307.07,14,309.6,14Z" transform="translate(-1.04 -0.56)"/><path class="cls-1" d="M329.31.76V2.12h-6.94V6.94h5.14V8.3h-5.14v6.86h-1.6V.76Z" transform="translate(-1.04 -0.56)"/><path class="cls-1" d="M352.38,10.85c-.64,2.67-2.12,4.51-5.07,4.51-3.23,0-5.5-2.35-5.5-7.4,0-4.69,2-7.4,5.5-7.4,2.67,0,4.23,1.56,4.87,4.19l-1.48.44c-.52-2-1.44-3.27-3.59-3.27s-3.71,1.91-3.71,6,1.64,6,4,6c2.21,0,3.07-1.67,3.51-3.43Z" transform="translate(-1.04 -0.56)"/><path class="cls-1" d="M356.14,15.16,360.57.76h2.37l4.43,14.4H365.7l-1.36-4.51h-5.16l-1.36,4.51Zm3.43-5.86h4.37l-2.07-7.42h-.22Z" transform="translate(-1.04 -0.56)"/><path class="cls-1" d="M372.51,15.16V.76h1.6v13h6.82v1.36Z" transform="translate(-1.04 -0.56)"/><path class="cls-1" d="M388.07.76v14.4h-1.6V.76Z" transform="translate(-1.04 -0.56)"/><path class="cls-1" d="M403.64.76V2.12H396.7V6.94h5.15V8.3H396.7v6.86h-1.59V.76Z" transform="translate(-1.04 -0.56)"/><path class="cls-1" d="M413.35.56C416.88.56,419,3.15,419,8s-2.09,7.4-5.62,7.4-5.62-2.59-5.62-7.4S409.82.56,413.35.56Zm0,13.44c2.53,0,4-1.95,4-6s-1.5-6-4-6-4,2-4,6S410.82,14,413.35,14Z" transform="translate(-1.04 -0.56)"/><path class="cls-1" d="M424.52,15.16V.76h4.62c3.12,0,4.81,1.4,4.81,3.79a3.74,3.74,0,0,1-2.87,3.75l3.05,6.86h-1.74l-2.91-6.54h-3.37v6.54Zm1.59-7.9H429c2.2,0,3.35-.82,3.35-2.63S431,2.12,429,2.12h-2.87Z" transform="translate(-1.04 -0.56)"/><path class="cls-1" d="M440.49,15.16V.76h2.29l6.28,11.09h.08V.76h1.44v14.4h-1.32L442,2.32h0V15.16Z" transform="translate(-1.04 -0.56)"/><path class="cls-1" d="M459.35.76v14.4h-1.59V.76Z" transform="translate(-1.04 -0.56)"/><path class="cls-1" d="M464.88,15.16,469.3.76h2.38l4.42,14.4h-1.67l-1.36-4.51h-5.16l-1.36,4.51Zm3.43-5.86h4.36L470.6,1.88h-.22Z" transform="translate(-1.04 -0.56)"/><path class="cls-1" d="M158.4,91.41V19.85h12.29V91.41Z" transform="translate(-1.04 -0.56)"/><path class="cls-1" d="M209.2,19.85h12.09l-15,71.56H194l-15-71.56h12.09l8.92,49.66h.2Z" transform="translate(-1.04 -0.56)"/><path class="cls-1" d="M229.35,91.41V19.85h32.91V30.56H241.64V49h15.87v10.7H241.64v21h22V91.41Z" transform="translate(-1.04 -0.56)"/><path class="cls-1" d="M285.51,91.41H273.22V19.85h17.24c13.78,0,20.81,5.85,20.81,21.11,0,11.5-4.45,16.16-8.62,18l10.41,32.41H300.57l-8.72-29.64a58.88,58.88,0,0,1-6.34.3Zm0-39.45h4.36c6.64,0,9.12-2.47,9.12-11s-2.48-11-9.12-11h-4.36Z" transform="translate(-1.04 -0.56)"/><path class="cls-1" d="M344.23,37.5c-.49-6.15-3.76-7.94-6.54-7.94-4,0-6.14,2.58-6.14,7,0,12.19,25,18,25,37.46,0,11.8-7.93,18.34-19.42,18.34s-17.94-9.12-18.44-19.83l11.69-1.68c.5,7.24,3.37,10.8,7.34,10.8,4.26,0,7.14-2.28,7.14-6.54,0-14.17-25-17.94-25-38.45,0-11.4,6.94-17.84,19-17.84,10,0,16,7.24,17.05,17.35Z" transform="translate(-1.04 -0.56)"/><path class="cls-1" d="M367.16,91.41V19.85h12.29V91.41Z" transform="translate(-1.04 -0.56)"/><path class="cls-1" d="M393.17,19.85h18.24c12.69,0,19.42,6.94,19.42,21.61V69.8c0,14.67-6.73,21.61-19.42,21.61H393.17ZM405.46,81.3h4.26c6.54,0,8.82-2.48,8.82-10V40c0-7.53-2.28-10-8.82-10h-4.26Z" transform="translate(-1.04 -0.56)"/><path class="cls-1" d="M442.94,91.41V19.85h32.91V30.56H455.23V49h15.86v10.7H455.23v21h22V91.41Z" transform="translate(-1.04 -0.56)"/><path class="cls-2" d="M1,19.78H13.19V73.19c0,5.19,2.06,7.74,6.47,7.74s6.47-2.55,6.47-7.74V19.78H38.28V72.7c0,12.15-7,18.81-18.62,18.81S1,84.85,1,72.7Z" transform="translate(-1.04 -0.56)"/><path class="cls-2" d="M74.54,43.4V37.91c0-6-2.74-8.52-5.88-8.52-4.9,0-6.47,2.54-6.47,7.84V73.09c0,5.29,1.57,7.84,6.47,7.84,4.41,0,5.88-2.55,5.88-7.16V65.25H86.69v8.13c0,10-5.88,18.13-18,18.13C55.92,91.51,50,83.38,50,73.38V36.93c0-10,5.88-18.13,18.62-18.13,12.15,0,18,8.82,18,19.41V43.4Z" transform="translate(-1.04 -0.56)"/><path class="cls-1" d="M114.51.61H98.87V91.47h15.6V54.22m21.78-3.9c5.28-2.39,10.94-8.31,10.94-22.91C147.19,8,138.26.61,120.77.61H115l2.52,15.77L126.88,2l-5.73,17.23L136.66,9.8,124,22.83l22.13-2.59-21.1,7.08,20.27,7.2L124,31.81l12.64,13-15.51-9.42,5.73,17.22L117.64,38.4,115,54.22a72.09,72.09,0,0,0,7.49-.38L133.6,91.47h15.85Z" transform="translate(-1.04 -0.56)"/><path class="cls-2" d="M79.4,91.38" transform="translate(-1.04 -0.56)"/></svg>